<svg xmlns="http://www.w3.org/2000/svg" width="64" height="64" viewBox="0 0 64 64">
  <defs>
    <linearGradient id="bg" x1="0%" y1="0%" x2="100%" y2="100%">
      <stop offset="0%" stop-color="#0f172a"/>
      <stop offset="100%" stop-color="#1e293b"/>
    </linearGradient>
    <linearGradient id="accent" x1="0%" y1="0%" x2="100%" y2="100%">
      <stop offset="0%" stop-color="#38bdf8"/>
      <stop offset="100%" stop-color="#0ea5e9"/>
    </linearGradient>
  </defs>
  <!-- 背景圆 -->
  <rect x="2" y="2" width="60" height="60" rx="14" fill="url(#bg)" stroke="#334155" stroke-width="1.5"/>
  <!-- 书本/文档形状 -->
  <path d="M20 18 L20 46 Q20 48 22 48 L44 48 Q46 48 46 46 L46 18 Q46 16 44 16 L22 16 Q20 16 20 18 Z" fill="none" stroke="url(#accent)" stroke-width="2.5" stroke-linecap="round" stroke-linejoin="round"/>
  <!-- 书页线条 -->
  <line x1="33" y1="16" x2="33" y2="48" stroke="url(#accent)" stroke-width="2" stroke-linecap="round"/>
  <!-- 文字行 -->
  <line x1="24" y1="25" x2="30" y2="25" stroke="#94a3b8" stroke-width="2" stroke-linecap="round"/>
  <line x1="24" y1="32" x2="30" y2="32" stroke="#94a3b8" stroke-width="2" stroke-linecap="round"/>
  <line x1="24" y1="39" x2="28" y2="39" stroke="#94a3b8" stroke-width="2" stroke-linecap="round"/>
  <line x1="37" y1="25" x2="42" y2="25" stroke="#64748b" stroke-width="2" stroke-linecap="round"/>
  <line x1="37" y1="32" x2="42" y2="32" stroke="#64748b" stroke-width="2" stroke-linecap="round"/>
  <line x1="37" y1="39" x2="40" y2="39" stroke="#64748b" stroke-width="2" stroke-linecap="round"/>
</svg>